<?xml version="1.0" standalone="no"?>
<!DOCTYPE svg PUBLIC "-//W3C//DTD SVG 20010904//EN"
 "http://www.w3.org/TR/2001/REC-SVG-20010904/DTD/svg10.dtd">
<svg version="1.0" xmlns="http://www.w3.org/2000/svg"
 width="700.000000pt" height="700.000000pt" viewBox="0 0 700.000000 700.000000"
 preserveAspectRatio="xMidYMid meet">
<metadata>
Created by potrace 1.11, written by Peter Selinger 2001-2013
</metadata>
<g transform="translate(0.000000,700.000000) scale(0.100000,-0.100000)"
fill="#000000" stroke="none">
<path d="M5855 6992 c-53 -18 -89 -48 -143 -120 -51 -67 -391 -533 -776 -1062
-66 -91 -144 -199 -174 -240 -31 -41 -74 -100 -96 -130 -22 -30 -60 -83 -85
-116 -25 -34 -53 -71 -61 -83 -13 -19 -377 -519 -430 -591 -265 -359 -971
-1331 -976 -1345 -4 -9 0 -15 7 -16 67 -4 350 -1 369 5 16 4 54 45 105 112 44
58 95 125 113 148 18 22 183 237 368 476 184 239 340 442 347 450 7 8 51 65
97 125 131 171 359 466 389 504 14 18 46 60 71 91 53 67 377 488 435 565 51
67 265 345 282 365 93 113 410 535 423 564 58 127 -45 289 -191 300 -30 3 -63
2 -74 -2z"/>
<path d="M6362 5821 c-33 -11 -70 -36 -108 -73 -33 -30 -75 -69 -94 -87 -19
-18 -93 -88 -165 -156 -71 -67 -146 -137 -165 -155 -19 -18 -67 -62 -105 -99
-39 -36 -140 -131 -225 -211 -85 -80 -184 -173 -220 -207 -36 -34 -83 -78
-105 -99 -22 -20 -102 -96 -179 -168 -76 -72 -148 -139 -159 -148 -11 -10 -85
-80 -166 -156 -80 -76 -175 -165 -210 -198 -54 -51 -114 -122 -286 -339 -137
-173 -324 -430 -316 -434 5 -4 73 -6 151 -5 l141 2 62 53 c34 29 64 56 67 59
3 3 106 96 230 205 124 110 230 204 236 210 54 49 307 274 448 399 38 34 79
70 91 81 13 11 55 49 95 85 80 71 77 68 175 155 37 33 77 69 89 80 12 11 53
47 90 80 37 33 78 69 90 80 13 11 58 52 102 90 43 39 99 88 124 111 60 54 98
87 280 249 266 236 290 259 311 303 41 83 9 189 -77 260 -33 27 -66 39 -130
47 -12 2 -44 -5 -72 -14z"/>
<path d="M1147 4682 c-127 -32 -203 -107 -272 -267 -9 -22 -21 -49 -26 -60 -4
-11 -44 -105 -88 -210 -43 -104 -144 -345 -224 -535 -79 -190 -150 -363 -157
-385 -53 -164 -50 -317 13 -585 48 -205 124 -535 131 -573 2 -12 32 -141 66
-287 34 -146 64 -276 66 -290 3 -14 11 -50 19 -80 8 -30 16 -67 19 -83 3 -15
7 -35 10 -45 3 -9 7 -28 10 -42 2 -14 14 -65 26 -115 12 -49 24 -100 26 -113
2 -12 14 -62 25 -110 12 -48 23 -96 25 -107 2 -11 13 -58 24 -105 11 -47 40
-175 65 -285 25 -110 55 -219 66 -242 26 -53 80 -106 139 -135 l45 -23 2125
-2 c2086 -2 2126 -2 2175 18 113 44 177 142 209 319 4 27 86 381 112 490 9 36
18 74 20 85 9 46 79 354 120 530 38 162 98 425 109 475 1 8 26 114 54 235 27
121 55 243 61 270 7 28 14 58 16 68 19 81 65 281 69 302 13 66 21 136 19 166
-9 121 -15 171 -29 223 -17 65 -152 393 -417 1014 -68 160 -76 166 -139 109
-20 -17 -62 -55 -95 -84 -175 -152 -224 -202 -224 -229 0 -20 81 -226 145
-369 8 -16 37 -86 66 -155 61 -149 70 -171 97 -230 28 -64 39 -110 35 -145 -6
-45 -44 -93 -83 -107 -27 -9 -557 -12 -2315 -12 -2073 0 -2283 1 -2310 16 -56
30 -70 54 -70 122 1 53 10 82 69 221 37 88 77 178 87 199 11 22 19 44 19 49 0
4 11 32 24 60 13 29 40 93 61 142 20 50 48 114 61 143 13 29 24 55 24 58 0 6
7 23 58 134 46 101 121 168 228 205 45 15 135 17 1013 17 569 -1 972 3 982 9
26 14 219 285 219 308 0 11 -6 23 -12 28 -7 4 -581 8 -1276 8 -1015 1 -1274
-2 -1315 -13z"/>
</g>
</svg>
